<svg version="1.1" id="Layer_1" xmlns="http://www.w3.org/2000/svg" xmlns:xlink="http://www.w3.org/1999/xlink" x="0px" y="0px"
	 width="100%" viewBox="0 0 1024 480" enable-background="new 0 0 1024 480" xml:space="preserve">
<path fill="#000000" opacity="1.000000" stroke="none" 
	d="
M875.977722,317.092346 
	C867.773315,315.334045 865.683777,307.833435 861.241211,302.691711 
	C860.972168,302.380249 860.936951,301.687012 861.058472,301.244324 
	C863.442810,292.558472 859.214539,284.531921 858.772461,276.387177 
	C843.282715,282.889526 830.807434,296.048035 812.957092,296.895691 
	C804.793213,297.283417 796.490479,297.377899 789.892456,290.596008 
	C785.384277,285.962219 779.058044,283.262238 776.244690,276.743347 
	C774.489136,272.675751 775.484009,268.175781 773.728394,264.168060 
	C770.543457,264.192078 769.514343,266.647064 767.793152,268.372864 
	C760.454041,275.731323 755.198059,285.870636 745.887451,290.338959 
	C736.567688,294.811707 727.009277,301.233521 715.710693,299.249329 
	C706.801086,297.684692 698.290039,294.687927 690.958557,288.948456 
	C688.387207,286.935455 685.325439,285.548920 682.482361,283.873230 
	C679.967896,285.548370 678.113464,287.306580 676.783813,290.061127 
	C674.817261,294.134613 670.221252,295.495483 666.672302,297.909088 
	C664.765442,299.205963 662.532654,299.998932 661.271973,302.186615 
	C657.229187,309.202332 650.729492,312.049988 642.999817,312.501465 
	C640.196289,312.665283 637.462158,312.859375 634.060181,314.133331 
	C640.626892,317.764252 644.016418,322.809296 645.165588,329.493347 
	C643.090332,330.092896 642.179199,329.653687 641.953369,328.910614 
	C640.236938,323.262665 635.528137,322.666809 630.709106,321.513977 
	C618.387939,318.566467 606.408936,318.986908 594.553467,323.550323 
	C592.097107,324.495819 589.737610,325.379669 589.498352,328.352112 
	C588.832092,336.629822 587.033447,345.080017 588.059387,353.160217 
	C589.210449,362.225647 587.453308,370.910614 587.081299,379.713257 
	C586.724548,388.156708 584.717102,396.607819 582.567200,404.911285 
	C581.678223,408.344696 579.958618,410.961945 577.480469,413.275970 
	C574.916870,415.669830 573.257751,418.929352 570.968567,421.329773 
	C566.479370,426.037048 560.192017,428.824890 553.624512,427.886475 
	C542.464844,426.291870 531.646240,423.159973 522.158752,416.616150 
	C521.747437,416.332428 521.306580,416.089569 520.907959,415.789856 
	C515.681030,411.859802 509.111481,392.431183 511.303436,386.362946 
	C512.915283,381.900848 513.527039,377.210358 515.849731,372.815979 
	C517.559265,369.581573 519.792847,367.083252 522.154053,364.757812 
	C528.716858,358.294525 531.877380,349.378510 538.916992,343.155365 
	C547.318787,335.728119 556.399231,329.327454 565.713623,323.253754 
	C570.614868,320.057770 572.981323,317.118805 573.136230,310.493683 
	C573.383545,299.919434 571.406677,289.687012 570.905640,279.278778 
	C570.868530,278.507935 570.518677,277.752106 570.222534,276.647491 
	C567.235901,277.706146 565.894348,280.059052 564.355713,282.102264 
	C559.185547,288.968231 551.443481,290.332886 543.886047,290.373047 
	C539.106140,290.398438 535.481079,286.107056 532.554138,282.152924 
	C531.116943,280.211395 530.326233,277.716980 528.132507,276.610046 
	C520.425598,284.773773 514.979309,294.810486 504.238770,299.363373 
	C502.847961,299.952942 501.924347,301.137634 501.117462,302.481506 
	C497.177795,309.043121 491.029022,311.830627 483.661255,312.451965 
	C481.684814,312.618622 479.711304,312.826813 477.740509,313.051636 
	C473.031494,313.588776 468.245972,310.680237 465.602325,306.795319 
	C458.216705,295.942078 455.708862,283.627563 456.995239,271.146881 
	C457.904999,262.320038 457.893555,253.307831 459.974487,244.595978 
	C460.259216,243.403854 460.244934,242.356613 459.940247,241.190796 
	C457.741089,232.776215 457.398438,224.252930 458.517365,215.644363 
	C458.593719,215.056915 458.249908,214.414886 458.021820,213.467270 
	C451.238434,214.792877 444.224243,214.218124 438.258301,218.077515 
	C434.414642,220.563980 432.171387,217.198914 429.025665,215.801682 
	C428.093781,218.547256 427.006622,221.115906 426.355774,223.790726 
	C424.629211,230.886154 415.409363,235.157608 408.945801,231.594833 
	C404.491119,229.139359 399.897034,229.478943 395.627350,231.321762 
	C391.545593,233.083450 387.786835,235.636124 384.366455,238.630951 
	C382.288330,240.450546 380.923920,242.562759 381.704926,245.134750 
	C382.513519,247.797653 385.057312,248.553009 387.701538,248.810150 
	C397.301483,249.743713 406.903717,250.663376 416.490356,251.721558 
	C424.274292,252.580765 430.152435,256.744812 434.604858,262.965973 
	C439.130798,269.289886 435.913300,281.273071 428.359589,286.168884 
	C426.321655,287.489746 424.457275,288.631348 424.207733,291.335907 
	C424.044159,293.108765 422.628052,293.844910 421.088928,294.106995 
	C416.735077,294.848297 414.282227,297.915314 412.322968,301.399750 
	C411.605286,302.676147 410.843597,303.634186 409.526825,303.984589 
	C403.419128,305.609772 397.385193,307.744904 391.055237,308.193695 
	C381.316467,308.884186 374.065308,300.086029 376.030365,290.577576 
	C377.798279,282.023132 382.494568,276.206177 390.910553,273.529114 
	C392.344391,273.073090 393.782562,272.310577 395.015137,273.815918 
	C396.011017,275.032166 396.471863,276.392395 395.871460,277.995972 
	C395.115509,280.015076 394.643097,281.996613 394.865051,284.287292 
	C395.399567,289.803345 399.476135,292.589722 403.351166,288.896210 
	C408.415619,284.069000 415.606323,280.705780 416.708191,272.305450 
	C417.362183,267.319336 416.983490,265.609009 411.984528,264.524567 
	C404.369720,262.872742 396.846832,260.837341 388.860443,261.221466 
	C383.031097,261.501892 377.347809,260.272247 372.325867,256.741364 
	C368.572296,254.102264 366.265045,250.635300 365.075317,246.328674 
	C364.815613,245.388611 364.436371,243.962921 364.893616,243.424362 
	C369.066406,238.509659 369.835327,231.685791 375.938995,227.514542 
	C383.808136,222.136780 391.691925,217.120895 400.517700,213.572525 
	C401.907471,213.013794 403.240265,212.314209 404.625671,211.743591 
	C416.516632,206.846008 416.518433,206.850388 426.918060,212.676178 
	C427.062988,205.527374 428.021210,204.861511 435.482635,204.697205 
	C440.949646,204.576843 446.434235,204.025558 451.852692,203.255859 
	C457.876343,202.400177 461.270630,199.246262 460.357849,193.313202 
	C458.399231,180.582336 462.673676,168.221588 461.631622,155.558212 
	C461.370087,152.379868 462.204712,148.893158 461.816101,145.426514 
	C461.438873,142.061478 463.107361,139.715912 466.903381,139.401230 
	C476.385651,138.615173 485.163605,144.997665 482.921661,156.894897 
	C480.789001,168.212372 480.271698,179.659897 478.450531,190.973587 
	C477.347717,197.824692 480.232422,201.259628 487.201752,201.012192 
	C498.931519,200.595718 510.733093,201.503967 522.385315,199.332291 
	C525.140747,198.818756 527.815430,200.104614 528.607971,202.386017 
	C529.554871,205.111679 526.689819,206.193970 524.558350,207.119781 
	C514.783752,211.365479 504.341614,212.405334 493.896820,213.263702 
	C490.563812,213.537613 487.305176,214.199005 484.010651,214.538177 
	C477.882904,215.169067 475.082703,219.043869 473.626465,224.343536 
	C470.762207,234.767365 470.978241,245.399506 471.693848,256.058563 
	C472.103333,262.157623 473.231079,268.158478 472.708527,274.382965 
	C471.676941,286.671356 482.322083,296.722900 492.887390,292.906708 
	C500.768738,290.059998 508.164520,285.434875 513.617798,278.690796 
	C516.053040,275.679138 518.358826,272.631439 521.738281,270.701996 
	C524.196716,269.298370 524.786316,267.644012 523.862610,264.957275 
	C521.007385,256.653168 518.548340,248.234940 516.499023,239.680023 
	C515.379456,235.006027 520.187500,224.946838 524.906128,223.831421 
	C528.395569,223.006561 531.032532,224.216278 532.408447,227.860672 
	C533.862244,231.711426 534.107544,235.994553 533.699463,239.655670 
	C532.991638,246.006790 534.980835,251.811615 535.374329,257.881134 
	C535.652039,262.165039 538.278931,265.629456 539.709167,269.512085 
	C540.286560,271.079559 542.175720,271.495270 544.008118,271.330933 
	C554.379761,270.400879 569.858948,256.992920 572.404663,246.586655 
	C572.672424,245.492157 572.665710,244.236343 572.434387,243.128845 
	C570.620667,234.443893 572.256714,225.757050 573.332520,217.276413 
	C574.101868,211.212296 577.554138,205.381958 581.246948,200.220062 
	C584.132568,196.186417 589.141785,196.833588 591.652283,201.695297 
	C592.989441,204.284943 594.621887,205.033417 597.138489,204.789886 
	C602.097290,204.310028 607.082275,203.975632 611.998169,203.208405 
	C618.052368,202.263519 621.312866,198.268723 620.338745,192.109436 
	C619.009583,183.705154 620.876770,175.565292 621.278015,167.304138 
	C621.610413,160.458298 622.638367,153.617249 621.775635,146.732315 
	C621.184509,142.014221 623.268860,139.196579 628.053345,139.286377 
	C637.973633,139.472534 644.814270,145.562988 642.918396,156.572708 
	C640.967529,167.902344 640.268616,179.337051 638.456421,190.651596 
	C637.291809,197.922684 640.008911,201.033554 647.396301,200.883148 
	C658.977844,200.647293 670.612000,201.396027 682.114258,199.266891 
	C685.059204,198.721756 687.902771,200.082321 688.660889,202.580917 
	C689.445984,205.168411 686.533936,206.269913 684.364380,207.200943 
	C674.571228,211.403687 664.138794,212.454727 653.689697,213.279114 
	C650.352844,213.542374 647.101196,214.250916 643.807739,214.589935 
	C637.623596,215.226486 635.029968,219.229401 633.542419,224.513596 
	C630.651550,234.782837 631.009583,245.279266 631.597717,255.753326 
	C631.949402,262.017029 633.097412,268.171570 632.629822,274.556152 
	C631.670898,287.649536 644.250671,297.472229 655.031189,292.460449 
	C662.989319,288.760834 671.986023,281.047241 677.637451,273.183960 
	C674.237000,262.760468 674.283386,252.647171 677.941711,242.501999 
	C679.991943,236.816391 684.486206,232.346100 685.408386,225.963272 
	C685.733093,223.715576 689.010742,221.806046 691.098938,219.917862 
	C697.807922,213.851318 703.695557,206.658371 713.053772,204.207352 
	C714.725952,203.769394 716.147339,202.337448 717.657471,201.324158 
	C721.937378,198.452408 729.309998,199.380707 732.607483,203.280716 
	C735.346619,206.520416 738.822021,208.835846 741.068909,212.848221 
	C747.019409,223.474335 744.922974,237.333725 735.674316,245.601547 
	C730.705994,250.042999 725.511047,254.262665 720.047607,257.885651 
	C716.504578,260.235168 712.287842,262.926880 707.119080,261.833466 
	C704.140991,261.203491 701.255676,264.052124 698.082703,262.523254 
	C695.578308,276.667694 706.539612,288.382385 719.125793,284.858124 
	C726.062805,282.915710 732.910095,281.112762 739.035522,277.173126 
	C741.560730,275.548981 743.589111,273.912262 745.101746,270.968811 
	C746.666687,267.923737 750.104858,265.837128 753.505188,264.474915 
	C758.443665,262.496429 763.320007,260.455658 767.906311,257.693085 
	C771.442688,255.562881 773.445251,253.062256 772.196960,248.727356 
	C771.839355,247.485367 771.734863,246.066895 771.919617,244.787918 
	C774.517029,226.806839 787.789429,211.943573 805.129333,207.439987 
	C806.656433,207.043350 808.118408,207.034286 809.523804,207.662598 
	C815.175903,210.189392 819.735840,214.423630 824.946716,217.649002 
	C826.223633,218.439407 826.795410,220.003784 827.045227,221.519058 
	C828.166931,228.323059 822.543518,236.595459 815.850037,238.194412 
	C812.269897,239.049652 810.234314,237.928177 810.493286,234.104858 
	C810.628479,232.109039 810.791016,230.660660 808.360229,229.851410 
	C806.066650,229.087830 805.258789,230.504929 803.756958,231.602341 
	C796.499451,236.905472 796.641052,244.983231 795.455627,252.578949 
	C794.969055,255.697021 794.653870,258.842438 794.289062,261.978729 
	C793.903198,265.295929 794.636047,268.260986 797.069519,270.696503 
	C797.535034,271.162354 797.977905,271.711151 798.244873,272.305359 
	C800.321289,276.928223 801.397339,282.107117 808.532654,281.868591 
	C813.426758,281.704956 818.176941,282.644867 823.277649,281.528290 
	C834.128845,279.152832 843.115662,273.325562 852.288696,267.734772 
	C856.020447,265.460358 857.981201,262.207733 857.862610,257.366791 
	C857.443909,240.275040 858.951233,223.328751 861.713379,206.420395 
	C862.643311,200.727951 861.430664,194.638458 861.499084,188.685318 
	C861.628784,177.395432 861.645203,166.075638 861.315125,154.760284 
	C861.007141,144.202896 860.242981,133.260315 862.369568,122.934143 
	C864.372559,113.208351 864.417664,103.604889 864.750305,93.893196 
	C864.837402,91.349922 864.597778,88.751740 863.380310,86.597054 
	C860.429199,81.374268 861.333496,75.622849 860.610046,70.094292 
	C860.169312,66.725929 862.420044,64.418579 863.968201,61.980110 
	C865.472839,59.610306 867.799316,60.808876 868.934265,62.486794 
	C872.512573,67.777222 878.140991,70.893196 882.289185,75.564102 
	C883.773987,77.235954 884.122131,78.994835 884.179626,81.031860 
	C884.681702,98.820236 884.642212,116.564774 881.519592,134.190018 
	C880.711548,138.750839 881.587708,143.668045 880.446289,148.101288 
	C876.493164,163.455338 876.564148,179.281555 874.506226,194.846558 
	C873.601685,201.688339 874.565125,208.802475 874.927917,215.780075 
	C875.385864,224.585266 874.615112,233.451752 876.222046,242.199265 
	C876.397278,243.153122 876.205078,244.246933 877.808228,245.159943 
	C883.380310,242.154144 884.097351,236.076492 884.446960,230.920654 
	C884.834290,225.209259 885.583374,220.158707 889.299500,215.686798 
	C890.335083,214.440475 891.147034,212.815170 891.513123,211.236572 
	C894.053223,200.282013 902.491272,196.508255 912.077087,194.030319 
	C914.324036,193.449493 916.407349,193.719589 918.256165,195.082809 
	C925.396240,200.347565 931.871155,206.198746 934.871033,214.918930 
	C935.177490,215.809723 935.241882,216.932526 935.004578,217.839325 
	C931.432129,231.491516 933.477478,245.622009 931.464294,259.410614 
	C931.188782,261.297394 931.977173,263.338654 932.267700,265.309174 
	C932.655396,267.939117 932.654114,271.158691 935.537415,272.099762 
	C938.375488,273.026001 941.132019,271.266449 943.104248,269.251251 
	C948.226379,264.017578 953.756104,259.173004 958.342102,253.413925 
	C959.706604,251.700363 961.119934,248.790283 963.825256,250.838455 
	C966.348206,252.748581 964.808838,255.214340 963.579346,257.538452 
	C960.291199,263.754364 954.062317,267.729736 951.183350,274.284607 
	C949.543457,278.018188 947.386475,281.443878 946.120728,285.447052 
	C944.703674,289.928772 941.833313,293.851685 936.138916,293.668610 
	C934.762085,293.624359 933.633728,294.118408 932.368530,294.563873 
	C928.216064,296.025757 924.624756,295.793793 921.278931,291.924835 
	C913.767517,283.238953 912.040833,274.232727 913.894714,262.539795 
	C915.776489,250.671143 918.239380,238.332565 915.815613,225.971283 
	C914.660156,220.078842 908.850891,216.882111 903.222778,219.470810 
	C902.002197,220.032211 901.425476,220.979233 901.492859,222.234100 
	C901.665833,225.456299 899.962036,227.963928 898.443726,230.538361 
	C888.869873,246.771530 883.900635,264.194275 884.226196,283.151398 
	C884.351685,290.460480 883.975769,297.826569 883.135681,305.086517 
	C882.593079,309.774872 881.427917,314.683960 875.977722,317.092346 
M625.824219,307.397064 
	C618.290405,296.505157 615.819702,284.042969 616.900757,271.328461 
	C617.609802,262.988770 618.350403,254.579498 619.483398,246.258118 
	C619.803589,243.906494 619.998840,241.811096 619.511230,239.477249 
	C618.600952,235.120743 617.939575,230.775452 618.029175,226.203812 
	C618.109924,222.087296 618.183411,217.866425 618.426208,213.577530 
	C609.749573,214.236664 602.007507,215.641418 594.765076,219.245819 
	C593.659851,219.795868 592.410034,220.180038 592.428284,221.473999 
	C592.479309,225.083969 591.209290,228.763855 592.469421,232.286407 
	C594.770935,238.720215 592.985168,245.135361 590.689758,250.640396 
	C587.835205,257.486328 584.756958,263.511566 584.713440,271.552460 
	C584.651489,282.992615 583.944214,294.399933 585.419556,305.802979 
	C586.323975,312.793640 586.872620,313.536896 593.940552,312.868652 
	C605.370056,311.788055 616.714294,309.390747 628.683716,311.815674 
	C627.590881,310.167145 626.870911,309.080994 625.824219,307.397064 
M527.324707,384.901794 
	C527.168457,390.782196 527.638672,396.591858 530.293091,401.941345 
	C534.174438,409.763611 538.125854,410.593628 545.196899,405.334412 
	C548.798340,402.655823 551.746277,399.101471 555.894653,397.166046 
	C561.914429,394.357483 566.113220,390.112488 567.887085,383.493805 
	C569.515564,377.417419 571.898987,371.527466 573.257935,365.401886 
	C573.879761,362.598938 574.671631,359.280914 573.027405,356.429993 
	C571.707397,354.141174 571.970459,352.171783 572.905701,349.828430 
	C574.994324,344.595032 574.853760,339.281036 572.373108,332.470520 
	C570.549011,338.584961 565.754822,337.996002 562.186584,339.686737 
	C553.326782,343.884918 546.621826,351.069214 540.422791,358.061096 
	C534.052612,365.246002 528.877380,373.961212 527.324707,384.901794 
M704.788696,225.257629 
	C697.932556,232.917450 695.144287,241.714066 696.622253,252.532227 
	C703.455750,250.935181 707.362366,245.802811 712.852173,243.641388 
	C713.177795,243.513168 713.491150,242.767929 713.438110,242.357925 
	C713.074158,239.543396 715.258972,238.187332 717.072388,237.616226 
	C723.373352,235.631775 725.916504,230.444595 728.355896,225.192963 
	C729.979248,221.698318 729.206787,218.053146 727.461243,214.794174 
	C726.212280,212.462372 723.608826,212.597763 721.655762,213.367874 
	C715.340820,215.857880 709.318604,218.919281 704.788696,225.257629 
z"/>
<path fill="#000000" opacity="1.000000" stroke="none" 
	d="
M78.483490,176.482391 
	C80.303902,173.565903 81.228394,170.678391 81.555489,167.704224 
	C82.351440,160.467209 86.158203,154.403152 88.793732,147.863113 
	C92.945686,137.560074 98.316895,127.787903 103.777878,118.275597 
	C108.544044,109.973541 111.060669,99.615181 120.439735,94.385628 
	C122.180527,93.414993 123.930130,92.457733 125.703323,91.548210 
	C128.656464,90.033440 131.767258,88.792175 133.380859,85.500465 
	C133.777206,84.691925 134.772690,84.005363 135.649887,83.629860 
	C150.486893,77.278534 162.070953,76.187981 174.228851,86.996376 
	C180.466187,92.541367 185.525192,99.202927 189.193985,106.811958 
	C192.008209,112.648590 195.041748,118.384209 197.700760,124.289474 
	C199.941559,129.266006 200.188248,134.859940 200.480881,140.089264 
	C201.423721,156.936844 200.429306,173.821854 200.168579,190.692841 
	C200.105530,194.772232 199.350586,197.486252 194.408813,195.588531 
	C193.372055,195.190414 192.506668,195.664795 191.612442,196.195908 
	C182.907516,201.365936 177.980423,199.640060 174.758087,190.098282 
	C173.162521,185.373581 171.632843,180.585358 170.630905,175.711273 
	C169.180450,168.655441 166.267502,162.164749 163.639771,155.555145 
	C162.133179,151.765549 163.159424,149.119308 166.793716,147.421280 
	C171.098984,145.409760 173.429092,142.967896 172.125717,137.370972 
	C171.367935,134.116882 172.141342,130.219955 171.832138,126.593681 
	C171.683990,124.856323 172.482910,123.021004 174.573044,123.163086 
	C176.678787,123.306244 176.358658,125.335625 176.217667,126.723297 
	C175.857468,130.268265 176.122192,133.358170 179.914185,135.092773 
	C181.177658,135.670746 181.495987,137.069382 181.308456,138.523926 
	C183.136032,128.563110 179.186234,120.330093 173.694153,112.647255 
	C172.063095,110.365555 170.078064,108.084770 166.705154,110.708588 
	C165.005310,112.030914 163.089462,110.892830 161.584274,109.914650 
	C154.889465,105.563835 149.061249,106.977287 143.688065,112.302177 
	C142.011368,113.963799 140.081192,115.649155 137.769531,115.849907 
	C129.766754,116.544899 125.337158,122.227798 120.997139,127.766708 
	C117.743431,131.919235 115.064667,136.566528 112.517357,141.206223 
	C111.512596,143.036316 110.210693,144.419098 108.825142,145.818207 
	C105.171791,149.507339 102.818871,153.942520 102.486977,159.057831 
	C102.280342,162.242538 101.306328,164.876434 99.542152,167.334763 
	C91.840279,178.067093 90.572830,190.822479 88.341637,203.236267 
	C86.645782,212.671616 85.468636,222.273453 84.687752,231.748688 
	C83.713081,243.575455 85.498299,255.573929 86.659096,267.497070 
	C87.323204,274.318512 88.384224,281.022675 89.349823,287.773590 
	C89.664406,289.972931 90.487442,291.940979 91.396461,293.891357 
	C93.558708,298.530640 96.374519,302.805359 98.427475,307.549438 
	C101.016487,313.532227 107.297668,316.047394 112.458252,319.102234 
	C117.402779,322.029114 122.344658,325.182098 127.834122,327.304321 
	C130.469650,328.323151 132.951538,329.735840 135.787048,329.501007 
	C144.699417,328.762787 153.808182,329.640167 162.509048,327.535156 
	C169.373184,325.874451 175.638916,322.533997 181.691071,318.481720 
	C186.071442,315.548798 190.861572,312.656403 196.010193,310.851624 
	C197.649429,310.277039 199.228104,309.614807 200.114197,308.194366 
	C205.508850,299.546631 214.438675,294.494049 221.201355,287.251923 
	C222.203506,286.178741 223.304276,284.983124 223.751511,283.641510 
	C226.429382,275.608246 233.318787,270.212616 236.726395,262.652405 
	C237.391342,261.177155 238.106827,259.280579 240.320007,260.152924 
	C242.427261,260.983551 244.267990,262.551483 244.120743,264.939972 
	C243.908234,268.387726 243.910446,272.194641 241.535065,274.918091 
	C233.385132,284.262207 226.339859,294.470856 218.075195,303.767029 
	C210.945129,311.786987 202.889206,318.534821 194.296036,324.510010 
	C182.926270,332.415833 171.781708,341.463165 158.028214,344.700684 
	C144.737091,347.829407 131.294388,350.021545 117.229424,347.196960 
	C105.931458,344.928070 95.000465,342.661682 86.024200,335.116669 
	C72.208542,323.503876 63.756020,308.752563 61.824299,290.692902 
	C60.432304,277.679108 61.246254,264.648438 61.794029,251.576523 
	C62.102280,244.220383 63.955406,236.874146 62.843262,229.445877 
	C62.750107,228.823700 62.879932,228.102188 63.111835,227.506973 
	C67.931236,215.137390 71.656128,202.482376 73.359909,189.273621 
	C73.946350,184.727158 76.174240,180.777985 78.483490,176.482391 
z"/>
<path fill="#000000" opacity="1.000000" stroke="none" 
	d="
M257.464813,226.814392 
	C259.388245,231.799500 261.164001,236.432297 262.939728,241.065094 
	C264.314667,235.145218 267.179321,229.933807 268.768799,224.286911 
	C271.286835,215.341263 276.470062,209.467056 285.480103,205.416443 
	C293.303497,201.899261 299.834961,203.450485 306.348755,206.224121 
	C316.491333,210.542847 316.804443,213.678909 311.942047,222.646118 
	C309.461609,223.043854 308.509064,221.173309 307.477661,219.496399 
	C305.523132,216.318695 303.302277,215.749771 300.079132,218.027100 
	C293.158295,222.916992 285.969208,227.972046 282.120544,235.412613 
	C279.497406,240.483887 275.856903,245.647324 276.066254,252.141800 
	C276.280182,258.779114 274.489105,265.685669 275.773773,272.029236 
	C277.199493,279.069153 277.371704,286.135559 278.423309,293.143585 
	C278.767822,295.439575 279.317596,297.946472 276.815002,299.432953 
	C274.229309,300.968750 272.056274,299.594391 269.970612,298.063232 
	C267.555481,296.290192 265.014923,294.677368 262.686737,292.799225 
	C259.868256,290.525635 257.437439,288.149506 259.947266,283.957886 
	C261.482574,281.393799 258.353638,279.064667 258.840820,276.317993 
	C260.994904,264.173859 254.542831,254.598465 249.744080,244.325317 
	C246.630585,237.659943 244.945206,230.280701 242.025528,223.423615 
	C240.998688,221.012009 243.116318,219.924454 244.742096,218.732620 
	C246.501846,217.442596 248.158279,216.890961 250.199249,218.278320 
	C253.313171,220.395004 255.708755,223.069199 257.464813,226.814392 
z"/>
<path fill="#000000" opacity="1.000000" stroke="none" 
	d="
M350.521851,301.482635 
	C342.155945,306.470154 330.724213,305.172180 324.259644,298.904449 
	C322.748779,297.439545 322.767487,295.694275 322.648285,293.869415 
	C322.145020,286.163544 323.787109,278.533325 325.181122,271.178741 
	C326.736298,262.973938 325.690857,254.615723 327.778442,246.666382 
	C329.968292,238.327652 327.135162,230.262802 327.480957,222.011581 
	C326.648712,220.611816 325.004425,221.593536 323.908875,220.892258 
	C322.445465,219.955521 321.413391,218.036331 323.017456,217.366440 
	C326.996582,215.704651 328.331177,210.194031 333.706940,210.635681 
	C338.850433,211.058228 341.618103,214.396927 344.274658,218.085358 
	C345.439636,219.702835 346.467194,221.419449 347.635925,223.034027 
	C351.143707,227.879974 351.917969,232.593506 347.374237,237.338715 
	C345.423798,239.375610 345.230103,241.997467 345.248779,244.776031 
	C345.297852,252.068375 346.210266,259.469757 344.236267,266.610107 
	C341.724304,275.696564 346.857056,282.270996 351.212982,289.029694 
	C354.035248,293.408783 354.352814,297.260895 350.521851,301.482635 
z"/>
<path fill="#000000" opacity="1.000000" stroke="none" 
	d="
M353.773041,173.280151 
	C358.444641,179.744781 358.246368,183.257599 353.145172,188.458282 
	C349.453094,192.222351 340.789337,192.308334 336.167664,189.829956 
	C332.162750,187.682327 330.238342,183.428726 325.942902,181.618835 
	C322.917236,180.343979 323.732635,167.500336 326.638153,166.394287 
	C332.039825,164.338028 337.568298,161.616119 341.971436,168.333099 
	C342.969513,169.855682 344.905640,169.939484 346.545074,169.568619 
	C349.883667,168.813400 351.913391,170.435837 353.773041,173.280151 
z"/>
</svg>